:FULLY-SPECIFIED
:FORCE-ALL-JOINTS-BE-3DOF
:DEGREES
2854
root -6.08871 13.2594 -28.8105 1241.01 -66.7938 -159.326
lfemur -65.6554 44.9963 -5.75192
ltibia 77.2356 0 0
lfoot -4.81663 -6.0769 0
ltoes -28.5835 0 0
rfemur -31.279 -19.1607 22.292
rtibia 88.9515 0 0
rfoot -41.0191 -29.0733 0
rtoes -13.7074 0 0
lowerback 15.7109 5.6678 0.947444
upperback -4.50451 8.04412 1.67443
thorax -13.9932 3.72523 -0.870301
lowerneck -2.52019 9.61131 2.1766
upperneck 9.0979 12.5178 2.05071
head 3.37683 6.32263 0.761326
lclavicle -1.2481e-13 -1.92827e-14 0
lhumerus 5.3075 12.3938 84.4362
lradius 93.5468 0 0
lwrist -19.0181 0 0
lhand -39.449 388.502 0
lfingers 7.12502 0 0
lthumb -12.4365 -661.888 0
rclavicle -1.2481e-13 -1.92827e-14 0
rhumerus -59.1347 51.0592 -111.455
rradius 113.646 0 0
rwrist -83.8849 0 0
rhand 7.69698 -386.195 0
rfingers 7.12502 0 0
rthumb 32.9389 306.791 0
2855
root -6.08936 13.2571 -28.8087 1240.99 -66.8025 -159.297
lfemur -65.7067 44.9988 -5.77325
ltibia 77.2642 0 0
lfoot -4.85567 -6.08272 0
ltoes -28.6906 0 0
rfemur -31.3054 -19.1502 22.3025
rtibia 88.9753 0 0
rfoot -41.0099 -29.1116 0
rtoes -13.7183 0 0
lowerback 15.7203 5.66442 0.964648
upperback -4.5089 8.04363 1.67507
thorax -14.0017 3.72318 -0.880059
lowerneck -2.52351 9.61053 2.17527
upperneck 9.09697 12.5162 2.05687
head 3.37658 6.32207 0.763543
lclavicle -1.24971e-13 -1.91539e-14 0
lhumerus 5.31624 12.3939 84.4322
lradius 93.5428 0 0
lwrist -19.0168 0 0
lhand -39.4338 388.479 0
lfingers 7.12502 0 0
lthumb -12.422 -661.91 0
rclavicle -1.24971e-13 -1.91539e-14 0
rhumerus -59.1386 51.0707 -111.464
rradius 113.638 0 0
rwrist -83.8658 0 0
rhand 7.70174 -386.183 0
rfingers 7.12502 0 0
rthumb 32.9434 306.804 0
2856
root -6.08995 13.2548 -28.8069 1240.98 -66.8109 -159.268
lfemur -65.7573 45.0014 -5.79478
ltibia 77.2919 0 0
lfoot -4.89521 -6.08769 0
ltoes -28.8003 0 0
rfemur -31.3319 -19.1395 22.3127
rtibia 88.9985 0 0
rfoot -41.0002 -29.1492 0
rtoes -13.729 0 0
lowerback 15.7296 5.66105 0.98175
upperback -4.51332 8.04312 1.67564
thorax -14.0101 3.72113 -0.88982
lowerneck -2.52689 9.60975 2.17393
upperneck 9.09598 12.5146 2.06297
head 3.37633 6.3215 0.765743
lclavicle -1.25009e-13 -1.90086e-14 0
lhumerus 5.32446 12.394 84.4279
lradius 93.5386 0 0
lwrist -19.0155 0 0
lhand -39.419 388.457 0
lfingers 7.12502 0 0
lthumb -12.4077 -661.931 0
rclavicle -1.25009e-13 -1.90086e-14 0
rhumerus -59.1425 51.082 -111.473
rradius 113.63 0 0
rwrist -83.8467 0 0
rhand 7.70615 -386.172 0
rfingers 7.12502 0 0
rthumb 32.9476 306.817 0
2857
root -6.0905 13.2526 -28.805 1240.97 -66.8189 -159.241
lfemur -65.8072 45.0039 -5.81644
ltibia 77.3188 0 0
lfoot -4.93515 -6.09184 0
ltoes -28.9119 0 0
rfemur -31.3586 -19.1286 22.3227
rtibia 89.0211 0 0
rfoot -40.99 -29.1861 0
rtoes -13.7395 0 0
lowerback 15.7387 5.6577 0.998721
upperback -4.51775 8.0426 1.67614
thorax -14.0185 3.71908 -0.899573
lowerneck -2.5303 9.60896 2.17258
upperneck 9.09495 12.5131 2.06898
head 3.37608 6.32094 0.767918
lclavicle -1.24917e-13 -1.88462e-14 0
lhumerus 5.33219 12.3942 84.4235
lradius 93.5341 0 0
lwrist -19.0143 0 0
lhand -39.4045 388.435 0
lfingers 7.12502 0 0
lthumb -12.3937 -661.952 0
rclavicle -1.24917e-13 -1.88462e-14 0
rhumerus -59.1462 51.0932 -111.482
rradius 113.622 0 0
rwrist -83.8276 0 0
rhand 7.71026 -386.16 0
rfingers 7.12502 0 0
rthumb 32.9515 306.829 0
